<?xml version="1.0" standalone="no"?>
<!DOCTYPE svg PUBLIC "-//W3C//DTD SVG 20010904//EN"
 "http://www.w3.org/TR/2001/REC-SVG-20010904/DTD/svg10.dtd">
<svg version="1.0" xmlns="http://www.w3.org/2000/svg"
 width="1159.000000pt" height="1000.000000pt" viewBox="0 0 1159.000000 1000.000000"
 preserveAspectRatio="xMidYMid meet">

<g transform="translate(0.000000,1000.000000) scale(0.100000,-0.100000)"
fill="#000000" stroke="none">
<path d="M5580 9578 c-128 -222 -233 -408 -233 -413 0 -9 315 -557 2084 -3621
257 -445 471 -818 475 -827 3 -9 2 -17 -3 -17 -19 0 -1127 300 -1134 307 -4 5
-162 276 -350 603 -1323 2292 -1565 2708 -1571 2702 -9 -9 -447 -769 -461
-799 -8 -19 17 -68 185 -360 1091 -1890 1650 -2858 1652 -2860 1 -1 507 -137
1126 -303 619 -165 1132 -303 1142 -306 15 -4 1655 -2831 1647 -2838 -2 -2
-220 -5 -483 -7 l-480 -4 -255 443 c-141 243 -260 442 -264 442 -19 0 -707
-405 -705 -415 2 -6 171 -302 377 -658 l373 -647 1437 6 c790 4 1437 7 1438 8
2 2 51 -82 -4490 7781 -571 990 -1089 1887 -1150 1993 -61 105 -114 192 -118
192 -3 0 -111 -181 -239 -402z"/>
<path d="M3443 5953 c-418 -725 -770 -1336 -783 -1358 l-23 -41 1314 -2276
1314 -2277 1572 -1 1572 0 -128 222 c-1059 1835 -1464 2534 -1470 2541 -6 6
-691 -380 -712 -402 -4 -3 190 -346 431 -761 240 -415 435 -758 433 -762 -2
-5 -278 -8 -612 -8 l-608 0 -183 318 c-1131 1959 -1936 3353 -1950 3377 l-19
30 303 525 c166 288 307 525 312 527 5 1 190 -311 412 -695 221 -384 408 -707
415 -716 13 -17 40 -3 366 186 195 112 354 206 355 209 1 7 -1523 2650 -1539
2667 -10 11 -162 -247 -772 -1305z"/>
<path d="M2256 3900 c-131 -226 -236 -416 -233 -424 3 -8 182 -319 397 -692
316 -546 389 -679 378 -689 -11 -10 -1474 -856 -1544 -893 -19 -10 -29 5 -155
224 -120 210 -135 232 -147 215 -7 -10 -221 -380 -476 -822 l-464 -804 492 -7
c270 -4 699 -7 953 -5 l462 2 -135 234 c-74 129 -133 235 -132 236 27 21 1571
904 1576 901 4 -3 185 -313 402 -690 l395 -685 478 -1 478 0 -12 22 c-14 26
-2433 4218 -2459 4261 l-17 27 -237 -410z"/>
</g>
</svg>
